<?xml version="1.0" encoding="UTF-8"?>
<svg width="367px" height="367px" viewBox="0 0 367 367" version="1.1" xmlns="http://www.w3.org/2000/svg" xmlns:xlink="http://www.w3.org/1999/xlink">
    <title>Logo</title>
    <defs>
        <circle id="path-1" cx="183.5" cy="183.5" r="183.5"></circle>
    </defs>
    <g id="Logo" stroke="none" stroke-width="1" fill="none" fill-rule="evenodd">
        <mask id="mask-2" fill="white">
            <use xlink:href="#path-1"></use>
        </mask>
        <use id="Oval" fill="#D80000" transform="translate(183.500000, 183.500000) rotate(-15.000000) translate(-183.500000, -183.500000) " xlink:href="#path-1"></use>
        <path d="M82.3876276,194.646447 C97.0542942,194.646447 109.970961,190.813113 121.137628,183.146447 C132.304294,175.47978 141.054294,164.563113 147.387628,150.396447 C153.720961,136.22978 156.887628,119.646447 156.887628,100.646447 C156.887628,81.6464466 153.720961,65.0631133 147.387628,50.8964466 C141.054294,36.7297799 132.304294,25.8131133 121.137628,18.1464466 C109.970961,10.4797799 97.0542942,6.64644661 82.3876276,6.64644661 C68.0542942,6.64644661 55.2209609,10.4797799 43.8876276,18.1464466 C32.5542942,25.8131133 23.7209609,36.7297799 17.3876276,50.8964466 C11.0542942,65.0631133 7.88762756,81.6464466 7.88762756,100.646447 C7.88762756,119.646447 11.0542942,136.22978 17.3876276,150.396447 C23.7209609,164.563113 32.5542942,175.47978 43.8876276,183.146447 C55.2209609,190.813113 68.0542942,194.646447 82.3876276,194.646447 Z M68.8876276,358.146447 L307.887628,8.14644661 L296.887628,8.14644661 L57.8876276,358.146447 L68.8876276,358.146447 Z M82.3876276,185.146447 C63.3876276,185.146447 47.8876276,177.646447 35.8876276,162.646447 C23.8876276,147.646447 17.8876276,126.97978 17.8876276,100.646447 C17.8876276,74.3131133 23.8876276,53.6464466 35.8876276,38.6464466 C47.8876276,23.6464466 63.3876276,16.1464466 82.3876276,16.1464466 C101.387628,16.1464466 116.887628,23.6464466 128.887628,38.6464466 C140.887628,53.6464466 146.887628,74.3131133 146.887628,100.646447 C146.887628,126.97978 140.887628,147.646447 128.887628,162.646447 C116.887628,177.646447 101.387628,185.146447 82.3876276,185.146447 Z M283.387628,359.646447 C298.054294,359.646447 310.970961,355.813113 322.137628,348.146447 C333.304294,340.47978 342.054294,329.563113 348.387628,315.396447 C354.720961,301.22978 357.887628,284.646447 357.887628,265.646447 C357.887628,246.646447 354.720961,230.063113 348.387628,215.896447 C342.054294,201.72978 333.304294,190.813113 322.137628,183.146447 C310.970961,175.47978 298.054294,171.646447 283.387628,171.646447 C269.054294,171.646447 256.220961,175.47978 244.887628,183.146447 C233.554294,190.813113 224.720961,201.72978 218.387628,215.896447 C212.054294,230.063113 208.887628,246.646447 208.887628,265.646447 C208.887628,284.646447 212.054294,301.22978 218.387628,315.396447 C224.720961,329.563113 233.554294,340.47978 244.887628,348.146447 C256.220961,355.813113 269.054294,359.646447 283.387628,359.646447 Z M283.387628,350.146447 C264.387628,350.146447 248.887628,342.646447 236.887628,327.646447 C224.887628,312.646447 218.887628,291.97978 218.887628,265.646447 C218.887628,239.313113 224.887628,218.646447 236.887628,203.646447 C248.887628,188.646447 264.387628,181.146447 283.387628,181.146447 C302.387628,181.146447 317.887628,188.646447 329.887628,203.646447 C341.887628,218.646447 347.887628,239.313113 347.887628,265.646447 C347.887628,291.97978 341.887628,312.646447 329.887628,327.646447 C317.887628,342.646447 302.387628,350.146447 283.387628,350.146447 Z" id="%" stroke="#FFFFFF" stroke-width="4" fill="#FFFFFF" fill-rule="nonzero" mask="url(#mask-2)" transform="translate(182.887628, 183.146447) rotate(-15.000000) translate(-182.887628, -183.146447) "></path>
    </g>
</svg>